# xmcd
#
# Track frame offsets:
#	150
#	14325
#	31928
#	42415
#	56696
#	72741
#	88666
#	102292
#	116977
#	139464
#	157893
#	168210
#	180385
#	197461
#	215733
#	235157
#	249002
#	262748
#	279433
#	295893
#
# Disc length: 4142 seconds
#
# Revision: 0
# Processed by: cddbd v1.5.2PL0 Copyright (c) Steve Scherf et al.
# Submitted via: EasyCDDAExtractor 10.2.0.1
#
DISCID=1c102c14
DTITLE=Various Artist - Crossroads March 2005
DYEAR=2005
DGENRE=Gospel
TTITLE0=Three Bridges - Not The Great I Was
TTITLE1=Jody Brown Indian Family - Nothing's Too Hard For God
TTITLE2=The Inspirations - In The Twinkle Of An Eye
TTITLE3=Daryl Williams Trio - Somebody Left The Door Open
TTITLE4=The Talleys - Oh Glorious Love
TTITLE5=The Kingsmen - You Keep Praying
TTITLE6=The McKameys - The Good News
TTITLE7=The Dove Brothers - Moving To The Rhythm
TTITLE8=Ivan Parker - Redeemer
TTITLE9=Kingdom Heirs - Forever Changed
TTITLE10=Poet Voices - Dead Days Are Over
TTITLE11=Reggie Sadler Family - The Real Thing
TTITLE12=Lauren Talley - I Will Trust In Christ
TTITLE13=Gospel Enforcers - Sign Me Up
TTITLE14=Calvary Construction Company - Hand Of The Healer
TTITLE15=Doyle Lawson - Praise His Name
TTITLE16=Newfound Road - Somewhere Between
TTITLE17=Change Of Heart - In Your Name
TTITLE18=Hayes Family - The Church Triumphant
TTITLE19=Promise - Brought Nigh By The Blood
EXTD=
EXTT0=
EXTT1=
EXTT2=
EXTT3=
EXTT4=
EXTT5=
EXTT6=
EXTT7=
EXTT8=
EXTT9=
EXTT10=
EXTT11=
EXTT12=
EXTT13=
EXTT14=
EXTT15=
EXTT16=
EXTT17=
EXTT18=
EXTT19=
PLAYORDER=
